<svg width="770" height="215" viewBox="0 0 770 215" fill="none" xmlns="http://www.w3.org/2000/svg">
<path d="M733.874 116.125C727.992 116.125 722.653 114.631 717.857 111.644C713.152 108.657 709.397 104.628 706.591 99.559C703.877 94.399 702.52 88.6507 702.52 82.3139C702.52 75.8866 703.877 70.1383 706.591 65.0689C709.397 59.9089 713.152 55.8353 717.857 52.848C722.653 49.7701 727.992 48.2312 733.874 48.2312C738.851 48.2312 743.239 49.3175 747.04 51.4901C750.931 53.5722 754.007 56.469 756.269 60.1805C758.532 63.892 759.663 68.1015 759.663 72.8088V91.5475C759.663 96.2548 758.532 100.464 756.269 104.176C754.098 107.887 751.066 110.829 747.175 113.002C743.284 115.084 738.851 116.125 733.874 116.125ZM736.317 102.003C740.027 102.003 743.239 101.188 745.954 99.559C748.759 97.839 750.931 95.4853 752.469 92.498C754.007 89.5107 754.776 86.0707 754.776 82.1781C754.776 78.2855 754.007 74.8456 752.469 71.8583C750.931 68.8709 748.759 66.5625 745.954 64.9331C743.239 63.2131 740.027 62.3531 736.317 62.3531C732.697 62.3531 729.485 63.2131 726.68 64.9331C723.965 66.5625 721.793 68.8709 720.165 71.8583C718.626 74.8456 717.857 78.2855 717.857 82.1781C717.857 86.0707 718.626 89.5107 720.165 92.498C721.793 95.4853 723.965 97.839 726.68 99.559C729.485 101.188 732.697 102.003 736.317 102.003ZM768.757 114.767H753.826V97.2506L756.405 81.3634L753.826 65.612V17H768.757V114.767Z" fill="#41302B"/>
<path d="M655.137 116.123C649.256 116.123 643.917 114.63 639.121 111.642C634.416 108.655 630.66 104.627 627.855 99.5574C625.141 94.3974 623.783 88.6491 623.783 82.3123C623.783 75.885 625.141 70.1367 627.855 65.0673C630.66 59.9073 634.416 55.8337 639.121 52.8464C643.917 49.7685 649.256 48.2296 655.137 48.2296C660.114 48.2296 664.503 49.3159 668.303 51.4885C672.194 53.5706 675.271 56.4674 677.533 60.1789C679.795 63.8904 680.926 68.0998 680.926 72.8072V91.5459C680.926 96.2532 679.795 100.463 677.533 104.174C675.361 107.886 672.33 110.828 668.439 113C664.548 115.082 660.114 116.123 655.137 116.123ZM657.581 102.002C663.1 102.002 667.534 100.146 670.882 96.4342C674.321 92.7227 676.04 87.9701 676.04 82.1765C676.04 78.2839 675.271 74.844 673.733 71.8566C672.194 68.8693 670.023 66.5609 667.218 64.9315C664.503 63.2115 661.291 62.3515 657.581 62.3515C653.961 62.3515 650.749 63.2115 647.944 64.9315C645.229 66.5609 643.057 68.8693 641.428 71.8566C639.89 74.844 639.121 78.2839 639.121 82.1765C639.121 86.0691 639.89 89.5091 641.428 92.4964C643.057 95.4837 645.229 97.8374 647.944 99.5574C650.749 101.187 653.961 102.002 657.581 102.002ZM675.09 114.766V97.249L677.669 81.3618L675.09 65.6104V49.5875H690.021V114.766H675.09Z" fill="#41302B"/>
<path d="M585.619 116.123C579.103 116.123 573.222 114.675 567.973 111.778C562.816 108.791 558.698 104.717 555.622 99.5574C552.636 94.3974 551.143 88.6038 551.143 82.1765C551.143 75.7492 552.636 70.0009 555.622 64.9315C558.608 59.7715 562.635 55.6979 567.702 52.7106C572.86 49.7232 578.56 48.2296 584.804 48.2296C590.867 48.2296 596.206 49.6327 600.821 52.439C605.526 55.2453 609.191 59.0926 611.815 63.981C614.529 68.8693 615.887 74.4366 615.887 80.6828C615.887 81.7692 615.796 82.9007 615.615 84.0775C615.525 85.1638 615.344 86.3859 615.072 87.7438H561.594V75.5229H607.336L601.771 80.4113C601.59 76.4282 600.821 73.0787 599.463 70.363C598.106 67.6472 596.16 65.5651 593.627 64.1167C591.184 62.6683 588.152 61.9441 584.533 61.9441C580.732 61.9441 577.429 62.7589 574.624 64.3883C571.819 66.0178 569.647 68.3262 568.109 71.3135C566.571 74.2103 565.802 77.6955 565.802 81.7691C565.802 85.8428 566.616 89.4185 568.245 92.4964C569.874 95.5742 572.181 97.9732 575.167 99.6931C578.153 101.323 581.592 102.137 585.483 102.137C588.831 102.137 591.907 101.549 594.713 100.372C597.608 99.1952 600.051 97.4753 602.042 95.2121L611.543 104.853C608.376 108.565 604.531 111.371 600.006 113.272C595.482 115.173 590.686 116.123 585.619 116.123Z" fill="#41302B"/>
<path d="M525.246 114.767V77.154C525.246 72.8088 523.843 69.233 521.038 66.4267C518.324 63.6205 514.795 62.2173 510.451 62.2173C507.555 62.2173 504.977 62.851 502.714 64.1183C500.452 65.3857 498.688 67.1509 497.421 69.4141C496.154 71.6772 495.521 74.2572 495.521 77.154L489.684 73.8951C489.684 68.9162 490.77 64.5257 492.942 60.7237C495.113 56.8311 498.099 53.7985 501.9 51.6259C505.791 49.3627 510.134 48.2312 514.93 48.2312C519.817 48.2312 524.16 49.3175 527.961 51.4901C531.761 53.6627 534.747 56.6953 536.919 60.5879C539.091 64.3899 540.176 68.8257 540.176 73.8951V114.767H525.246ZM480.59 114.767V17H495.521V114.767H480.59Z" fill="#41302B"/>
<path d="M429.137 116.125C423.256 116.125 417.917 114.631 413.121 111.644C408.416 108.657 404.66 104.628 401.855 99.559C399.141 94.399 397.783 88.6507 397.783 82.3139C397.783 75.8866 399.141 70.1383 401.855 65.0689C404.66 59.9089 408.416 55.8353 413.121 52.848C417.917 49.7701 423.256 48.2312 429.137 48.2312C434.114 48.2312 438.503 49.3175 442.303 51.4901C446.194 53.5722 449.271 56.469 451.533 60.1805C453.795 63.892 454.926 68.1015 454.926 72.8088V91.5475C454.926 96.2548 453.795 100.464 451.533 104.176C449.361 107.887 446.33 110.829 442.439 113.002C438.548 115.084 434.114 116.125 429.137 116.125ZM431.581 102.003C435.291 102.003 438.503 101.188 441.217 99.559C444.023 97.839 446.194 95.4853 447.733 92.498C449.271 89.5107 450.04 86.0707 450.04 82.1781C450.04 78.2855 449.271 74.8456 447.733 71.8583C446.194 68.8709 444.023 66.5625 441.217 64.9331C438.503 63.2131 435.291 62.3531 431.581 62.3531C427.961 62.3531 424.749 63.2131 421.944 64.9331C419.229 66.5625 417.057 68.8709 415.428 71.8583C413.89 74.8456 413.121 78.2855 413.121 82.1781C413.121 86.0707 413.89 89.5107 415.428 92.498C417.057 95.4853 419.229 97.839 421.944 99.559C424.749 101.188 427.961 102.003 431.581 102.003ZM464.021 114.767H449.09V97.2506L451.669 81.3634L449.09 65.612V17H464.021V114.767Z" fill="#41302B"/>
<path d="M359.619 116.123C353.103 116.123 347.222 114.675 341.973 111.778C336.816 108.791 332.698 104.717 329.622 99.5574C326.636 94.3974 325.143 88.6038 325.143 82.1765C325.143 75.7492 326.636 70.0009 329.622 64.9315C332.608 59.7715 336.635 55.6979 341.702 52.7106C346.86 49.7232 352.56 48.2296 358.804 48.2296C364.867 48.2296 370.206 49.6327 374.821 52.439C379.526 55.2453 383.191 59.0926 385.815 63.981C388.53 68.8693 389.887 74.4366 389.887 80.6828C389.887 81.7692 389.796 82.9007 389.615 84.0775C389.525 85.1638 389.344 86.3859 389.072 87.7438H335.594V75.5229H381.336L375.771 80.4113C375.59 76.4282 374.821 73.0787 373.463 70.363C372.106 67.6472 370.16 65.5651 367.627 64.1167C365.184 62.6683 362.152 61.9441 358.533 61.9441C354.732 61.9441 351.429 62.7589 348.624 64.3883C345.819 66.0178 343.647 68.3262 342.109 71.3135C340.571 74.2103 339.802 77.6955 339.802 81.7691C339.802 85.8428 340.616 89.4185 342.245 92.4964C343.874 95.5742 346.181 97.9732 349.167 99.6931C352.153 101.323 355.592 102.137 359.483 102.137C362.831 102.137 365.907 101.549 368.713 100.372C371.608 99.1952 374.051 97.4753 376.042 95.2121L385.543 104.853C382.376 108.565 378.531 111.371 374.006 113.272C369.482 115.173 364.686 116.123 359.619 116.123Z" fill="#41302B"/>
<path d="M260.723 74.4384V61.5386H284.747C289.543 61.5386 293.253 60.3165 295.877 57.8723C298.592 55.3376 299.949 51.8524 299.949 47.4167C299.949 43.4335 298.637 40.0841 296.013 37.3684C293.389 34.6526 289.679 33.2947 284.883 33.2947H260.723V19.716H285.562C291.534 19.716 296.782 20.938 301.307 23.3822C305.831 25.7359 309.315 28.9948 311.758 33.1589C314.292 37.2326 315.559 41.8946 315.559 47.1451C315.559 52.6671 314.292 57.465 311.758 61.5386C309.315 65.6122 305.831 68.7806 301.307 71.0437C296.782 73.3068 291.534 74.4384 285.562 74.4384H260.723ZM250 114.767V19.716H265.609V114.767H250ZM302.121 114.767L268.867 73.4879L283.39 68.1922L321.802 114.767H302.121Z" fill="#41302B"/>
<path d="M752.432 182.682L738.115 161.067H743.831L755.369 178.747H752.799L764.389 161.067H770L755.578 182.682H752.432ZM751.593 197.477V179.429H756.522V197.477H751.593Z" fill="#41302B"/>
<path d="M714.665 198C712.043 198 709.613 197.528 707.376 196.584C705.138 195.604 703.18 194.258 701.502 192.544C699.859 190.83 698.583 188.836 697.674 186.563C696.765 184.29 696.311 181.859 696.311 179.271C696.311 176.647 696.765 174.199 697.674 171.926C698.583 169.652 699.859 167.676 701.502 165.997C703.18 164.284 705.121 162.954 707.323 162.01C709.561 161.031 711.991 160.541 714.613 160.541C717.48 160.541 719.997 161.031 722.165 162.01C724.332 162.989 726.255 164.319 727.933 165.997L724.524 169.407C723.371 168.113 721.955 167.099 720.277 166.365C718.633 165.63 716.745 165.263 714.613 165.263C712.69 165.263 710.924 165.613 709.316 166.312C707.708 166.977 706.31 167.938 705.121 169.198C703.932 170.457 703.006 171.943 702.341 173.657C701.712 175.371 701.397 177.242 701.397 179.271C701.397 181.299 701.712 183.17 702.341 184.884C703.006 186.598 703.932 188.084 705.121 189.344C706.31 190.603 707.708 191.582 709.316 192.282C710.924 192.946 712.69 193.278 714.613 193.278C716.885 193.278 718.861 192.911 720.539 192.177C722.217 191.407 723.633 190.375 724.787 189.081L728.195 192.439C726.517 194.188 724.542 195.552 722.269 196.531C720.032 197.51 717.497 198 714.665 198Z" fill="#41302B"/>
<path d="M652.785 197.477V161.067H656.246L657.715 166.785V197.477H652.785ZM677.957 197.477L655.617 167.625L656.246 161.067L678.639 190.866L677.957 197.477ZM677.957 197.477L676.489 192.073V161.067H681.418V197.477H677.957Z" fill="#41302B"/>
<path d="M613.725 197.477V161.067H618.654V197.477H613.725ZM617.081 197.477V192.965H637.953V197.477H617.081ZM617.081 181.003V176.701H636.222V181.003H617.081ZM617.081 165.579V161.067H637.691V165.579H617.081Z" fill="#41302B"/>
<path d="M581.501 198C578.949 198 576.554 197.528 574.317 196.584C572.114 195.604 570.174 194.258 568.496 192.544C566.853 190.83 565.559 188.837 564.615 186.563C563.671 184.29 563.199 181.841 563.199 179.218C563.199 176.595 563.671 174.164 564.615 171.926C565.559 169.652 566.87 167.659 568.548 165.945C570.226 164.231 572.184 162.902 574.422 161.958C576.694 161.013 579.159 160.541 581.816 160.541C584.718 160.541 587.392 161.101 589.84 162.22C592.287 163.339 594.332 164.948 595.975 167.047L592.567 170.457C591.413 168.778 589.892 167.501 588.004 166.627C586.116 165.718 584.054 165.263 581.816 165.263C579.159 165.263 576.799 165.858 574.736 167.047C572.709 168.236 571.118 169.88 569.964 171.978C568.846 174.077 568.286 176.49 568.286 179.218C568.286 181.981 568.863 184.412 570.017 186.511C571.17 188.609 572.726 190.253 574.684 191.442C576.642 192.631 578.879 193.226 581.397 193.226C583.949 193.226 586.151 192.736 588.004 191.757C589.892 190.778 591.343 189.344 592.357 187.455C593.371 185.531 593.878 183.188 593.878 180.425L596.867 182.576H581.134V178.064H598.965V178.799C598.965 183.031 598.213 186.581 596.71 189.449C595.241 192.282 593.179 194.415 590.522 195.849C587.899 197.283 584.893 198 581.501 198Z" fill="#41302B"/>
<path d="M520.434 197.477L535.327 161.067H538.893L553.734 197.477H548.385L536.166 166.68H538.002L525.678 197.477H520.434ZM527.513 189.24V184.938H546.655V189.24H527.513Z" fill="#41302B"/>
<path d="M468.9 197.477V161.067H473.83V197.477H468.9ZM472.257 197.477V192.965H491.765V197.477H472.257Z" fill="#41302B"/>
<path d="M421.992 197.477L436.886 161.067H440.452L455.293 197.477H449.944L437.725 166.68H439.56L427.236 197.477H421.992ZM429.072 189.24V184.938H448.213V189.24H429.072Z" fill="#41302B"/>
<path d="M398.738 197.477V162.116H403.667V197.477H398.738ZM386.361 165.579V161.067H415.991V165.579H386.361Z" fill="#41302B"/>
<path d="M367.439 197.477V161.067H372.369V197.477H367.439Z" fill="#41302B"/>
<path d="M335.216 198C332.664 198 330.269 197.528 328.032 196.584C325.829 195.604 323.889 194.258 322.211 192.544C320.568 190.83 319.274 188.837 318.33 186.563C317.386 184.29 316.914 181.841 316.914 179.218C316.914 176.595 317.386 174.164 318.33 171.926C319.274 169.652 320.585 167.659 322.263 165.945C323.941 164.231 325.899 162.902 328.137 161.958C330.409 161.013 332.874 160.541 335.531 160.541C338.433 160.541 341.107 161.101 343.555 162.22C346.002 163.339 348.047 164.948 349.69 167.047L346.282 170.457C345.128 168.778 343.607 167.501 341.719 166.627C339.831 165.718 337.768 165.263 335.531 165.263C332.874 165.263 330.514 165.858 328.451 167.047C326.424 168.236 324.833 169.88 323.679 171.978C322.56 174.077 322.001 176.49 322.001 179.218C322.001 181.981 322.578 184.412 323.732 186.511C324.885 188.609 326.441 190.253 328.399 191.442C330.357 192.631 332.594 193.226 335.111 193.226C337.664 193.226 339.866 192.736 341.719 191.757C343.607 190.778 345.058 189.344 346.072 187.455C347.086 185.531 347.593 183.188 347.593 180.425L350.582 182.576H334.849V178.064H352.679V178.799C352.679 183.031 351.928 186.581 350.424 189.449C348.956 192.282 346.893 194.415 344.236 195.849C341.614 197.283 338.608 198 335.216 198Z" fill="#41302B"/>
<path d="M297.102 197.477V161.067H302.031V197.477H297.102Z" fill="#41302B"/>
<path d="M253.406 197.477V192.965H263.527C266.219 192.965 268.579 192.388 270.607 191.233C272.634 190.044 274.208 188.418 275.326 186.354C276.48 184.291 277.057 181.912 277.057 179.219C277.057 176.561 276.48 174.2 275.326 172.137C274.173 170.073 272.582 168.464 270.554 167.31C268.526 166.156 266.184 165.579 263.527 165.579H253.458V161.067H263.632C266.289 161.067 268.736 161.522 270.974 162.431C273.246 163.34 275.204 164.617 276.847 166.261C278.525 167.905 279.819 169.828 280.728 172.032C281.672 174.235 282.144 176.649 282.144 179.272C282.144 181.86 281.672 184.273 280.728 186.512C279.819 188.715 278.543 190.639 276.9 192.283C275.257 193.927 273.299 195.203 271.026 196.112C268.789 197.022 266.359 197.477 263.737 197.477H253.406ZM250.154 197.477V161.067H255.084V197.477H250.154Z" fill="#41302B"/>
<path d="M107.226 0C48.0068 0 0 48.1245 0 107.489C0 141.758 15.9976 172.282 40.9148 191.964C19.114 149 27.8374 109.708 58.6174 79.1836C91.8573 46.2203 136.612 35.4472 140.466 16.1234C141.28 12.0472 140.345 8.07414 138.404 4.61442C128.538 1.61363 118.07 0 107.226 0Z" fill="url(#paint0_linear_116_1864)"/>
<path d="M107.226 0C48.0068 0 0 48.1245 0 107.489C0 141.758 15.9976 172.282 40.9148 191.964C19.114 149 27.8374 109.708 58.6174 79.1836C91.8573 46.2203 136.612 35.4472 140.466 16.1234C141.279 12.0472 140.345 8.07415 138.404 4.61442C128.538 1.61363 118.07 0 107.226 0Z" fill="url(#paint1_radial_116_1864)"/>
<path d="M107.226 0C48.0068 0 0 48.1245 0 107.489C0 141.758 15.9976 172.282 40.9148 191.964C19.114 149 27.8374 109.708 58.6174 79.1836C91.8573 46.2203 136.612 35.4472 140.466 16.1234C141.279 12.0472 140.345 8.07415 138.404 4.61442C128.538 1.61363 118.07 0 107.226 0Z" fill="url(#paint2_radial_116_1864)"/>
<path d="M107.226 0C48.0068 0 0 48.1245 0 107.489C0 141.758 15.9976 172.282 40.9148 191.964C19.114 149 27.8374 109.708 58.6174 79.1836C91.8573 46.2203 136.612 35.4472 140.466 16.1234C141.279 12.0472 140.345 8.07415 138.404 4.61442C128.538 1.61363 118.07 0 107.226 0Z" fill="url(#paint3_radial_116_1864)"/>
<path d="M58.6182 79.1845C91.8581 46.2211 136.613 35.448 140.467 16.1242C141.28 12.048 140.346 8.07496 138.405 4.61523C141.315 5.50042 144.173 6.50631 146.973 7.6271C149.601 11.21 151.692 16.3639 151.188 22.9318C150.638 30.1023 147.076 36.5888 141.866 42.9965C126.772 61.5627 96.1936 79.0158 88.2823 111.431C81.7137 138.345 83.0759 162.799 90.8873 180.383C97.1836 194.556 128.93 217.716 164.77 198.139C144.753 212.344 118.068 215.284 107.227 214.979C82.193 214.979 59.1627 206.379 40.9156 191.965C19.1148 149.001 27.8382 109.708 58.6182 79.1845Z" fill="url(#paint4_linear_116_1864)"/>
<path d="M58.6182 79.1845C91.8581 46.2211 136.613 35.448 140.467 16.1242C141.28 12.048 140.346 8.07496 138.405 4.61523C141.315 5.50042 144.173 6.50631 146.973 7.6271C149.601 11.21 151.692 16.3639 151.188 22.9318C150.638 30.1023 147.076 36.5888 141.866 42.9965C126.772 61.5627 96.1936 79.0158 88.2823 111.431C81.7137 138.345 83.0759 162.799 90.8873 180.383C97.1836 194.556 128.93 217.716 164.77 198.139C144.753 212.344 118.068 215.284 107.227 214.979C82.193 214.979 59.1627 206.379 40.9156 191.965C19.1148 149.001 27.8382 109.708 58.6182 79.1845Z" fill="url(#paint5_radial_116_1864)"/>
<path d="M58.6182 79.1845C91.8581 46.2211 136.613 35.448 140.467 16.1242C141.28 12.048 140.346 8.07496 138.405 4.61523C141.315 5.50042 144.173 6.50631 146.973 7.6271C149.601 11.21 151.692 16.3639 151.188 22.9318C150.638 30.1023 147.076 36.5888 141.866 42.9965C126.772 61.5627 96.1936 79.0158 88.2823 111.431C81.7137 138.345 83.0759 162.799 90.8873 180.383C97.1836 194.556 128.93 217.716 164.77 198.139C144.753 212.344 118.068 215.284 107.227 214.979C82.193 214.979 59.1627 206.379 40.9156 191.965C19.1148 149.001 27.8382 109.708 58.6182 79.1845Z" fill="url(#paint6_radial_116_1864)"/>
<path d="M58.6182 79.1845C91.8581 46.2211 136.613 35.448 140.467 16.1242C141.28 12.048 140.346 8.07496 138.405 4.61523C141.315 5.50042 144.173 6.50631 146.973 7.6271C149.601 11.21 151.692 16.3639 151.188 22.9318C150.638 30.1023 147.076 36.5888 141.866 42.9965C126.772 61.5627 96.1936 79.0158 88.2823 111.431C81.7137 138.345 83.0759 162.799 90.8873 180.383C97.1836 194.556 128.93 217.716 164.77 198.139C144.753 212.344 118.068 215.284 107.227 214.979C82.193 214.979 59.1627 206.379 40.9156 191.965C19.1148 149.001 27.8382 109.708 58.6182 79.1845Z" fill="url(#paint7_linear_116_1864)"/>
<path d="M193.011 94.5909C206.621 129.735 201.946 177.833 164.773 198.139C128.933 217.716 97.1861 194.556 90.8898 180.383C87.214 167.325 89.4461 157.922 95.4347 151.918C96.9835 149.888 103.083 144.752 112.233 149.052C123.671 154.426 129.39 157.89 134.036 154.785C138.683 151.68 137.221 147.959 139.366 143.66C141.332 139.719 142.357 140.389 143.716 138.208C144.8 136.471 143.996 134.922 144.532 133.847C145.068 132.772 145.62 133.03 146.163 130.304C146.607 128.082 143.676 124.998 146.435 121.309C148.067 119.129 153.093 120.344 155.952 116.403C158.325 113.132 149.763 102.832 150.12 94.2326C150.477 85.6334 156.554 79.9007 154.052 65.9271C151.969 54.2952 147.261 48.7294 141.9 42.997C144.844 43.1524 181.259 64.2481 193.011 94.5909Z" fill="url(#paint8_linear_116_1864)"/>
<path d="M193.011 94.5909C206.621 129.735 201.946 177.833 164.773 198.139C128.933 217.716 97.1861 194.556 90.8898 180.383C87.214 167.325 89.4461 157.922 95.4347 151.918C96.9835 149.888 103.083 144.752 112.233 149.052C123.671 154.426 129.39 157.89 134.036 154.785C138.683 151.68 137.221 147.959 139.366 143.66C141.332 139.719 142.357 140.389 143.716 138.208C144.8 136.471 143.996 134.922 144.532 133.847C145.068 132.772 145.62 133.03 146.163 130.304C146.607 128.082 143.676 124.998 146.435 121.309C148.067 119.129 153.093 120.344 155.952 116.403C158.325 113.132 149.763 102.832 150.12 94.2326C150.477 85.6334 156.554 79.9007 154.052 65.9271C151.969 54.2952 147.261 48.7294 141.9 42.997C144.844 43.1524 181.259 64.2481 193.011 94.5909Z" fill="url(#paint9_radial_116_1864)"/>
<defs>
<linearGradient id="paint0_linear_116_1864" x1="70.3801" y1="0" x2="70.3801" y2="191.964" gradientUnits="userSpaceOnUse">
<stop stop-color="#FF7C32"/>
<stop offset="1" stop-color="#FF455B"/>
</linearGradient>
<radialGradient id="paint1_radial_116_1864" cx="0" cy="0" r="1" gradientUnits="userSpaceOnUse" gradientTransform="translate(126.857 75.7903) rotate(153.036) scale(142.465 104.872)">
<stop stop-color="#CE2500" stop-opacity="0"/>
<stop offset="0.448342" stop-color="#CE2500" stop-opacity="0"/>
<stop offset="1" stop-color="#CE2500"/>
</radialGradient>
<radialGradient id="paint2_radial_116_1864" cx="0" cy="0" r="1" gradientUnits="userSpaceOnUse" gradientTransform="translate(148.609 184) rotate(-133.746) scale(186.388 122.286)">
<stop stop-color="#FF7C32"/>
<stop offset="0.745381" stop-color="#FF7C32"/>
<stop offset="1" stop-color="#FF7C32" stop-opacity="0"/>
</radialGradient>
<radialGradient id="paint3_radial_116_1864" cx="0" cy="0" r="1" gradientUnits="userSpaceOnUse" gradientTransform="translate(140.724 19.6414) rotate(164.595) scale(155.965 102.552)">
<stop stop-color="#FF7C32"/>
<stop offset="1" stop-color="#FF7C32" stop-opacity="0"/>
</radialGradient>
<linearGradient id="paint4_linear_116_1864" x1="96.7952" y1="4.61523" x2="96.7952" y2="215" gradientUnits="userSpaceOnUse">
<stop stop-color="#FF7C32"/>
<stop offset="1" stop-color="#FF455B"/>
</linearGradient>
<radialGradient id="paint5_radial_116_1864" cx="0" cy="0" r="1" gradientUnits="userSpaceOnUse" gradientTransform="translate(118.156 148.294) rotate(161.172) scale(84.4581 111.538)">
<stop stop-color="#CE2500" stop-opacity="0"/>
<stop offset="0.549917" stop-color="#CE2500" stop-opacity="0"/>
<stop offset="1" stop-color="#CE2500"/>
</radialGradient>
<radialGradient id="paint6_radial_116_1864" cx="0" cy="0" r="1" gradientUnits="userSpaceOnUse" gradientTransform="translate(118.156 148.294) rotate(-83.9344) scale(126.087 165.795)">
<stop stop-color="#CE2500" stop-opacity="0"/>
<stop offset="0.549917" stop-color="#CE2500" stop-opacity="0"/>
<stop offset="1" stop-color="#CE1900"/>
</radialGradient>
<linearGradient id="paint7_linear_116_1864" x1="-109.154" y1="182.365" x2="148.953" y2="24.5662" gradientUnits="userSpaceOnUse">
<stop stop-color="#FF7C32" stop-opacity="0"/>
<stop offset="0.378261" stop-color="#FF7C32" stop-opacity="0"/>
<stop offset="1" stop-color="#FF7133"/>
</linearGradient>
<linearGradient id="paint8_linear_116_1864" x1="144.552" y1="42.9961" x2="144.552" y2="205.67" gradientUnits="userSpaceOnUse">
<stop stop-color="#FF7C32"/>
<stop offset="1" stop-color="#FF455B"/>
</linearGradient>
<radialGradient id="paint9_radial_116_1864" cx="0" cy="0" r="1" gradientUnits="userSpaceOnUse" gradientTransform="translate(160.574 73.3373) rotate(101.651) scale(149.448 101.901)">
<stop stop-color="#CE2500" stop-opacity="0"/>
<stop offset="0.685603" stop-color="#CE2500" stop-opacity="0"/>
<stop offset="1" stop-color="#CE0000"/>
</radialGradient>
</defs>
</svg>
