<svg width="200" height="215" viewBox="0 0 200 215" fill="none" xmlns="http://www.w3.org/2000/svg">
<path d="M107.226 0C48.0068 0 0 48.1245 0 107.489C0 141.758 15.9976 172.282 40.9148 191.964C19.114 149 27.8374 109.708 58.6174 79.1836C91.8573 46.2203 136.612 35.4472 140.466 16.1234C141.28 12.0472 140.345 8.07414 138.404 4.61442C128.538 1.61363 118.07 0 107.226 0Z" fill="url(#paint0_linear_116_1876)"/>
<path d="M107.226 0C48.0068 0 0 48.1245 0 107.489C0 141.758 15.9976 172.282 40.9148 191.964C19.114 149 27.8374 109.708 58.6174 79.1836C91.8573 46.2203 136.612 35.4472 140.466 16.1234C141.279 12.0472 140.345 8.07415 138.404 4.61442C128.538 1.61363 118.07 0 107.226 0Z" fill="url(#paint1_radial_116_1876)"/>
<path d="M107.226 0C48.0068 0 0 48.1245 0 107.489C0 141.758 15.9976 172.282 40.9148 191.964C19.114 149 27.8374 109.708 58.6174 79.1836C91.8573 46.2203 136.612 35.4472 140.466 16.1234C141.279 12.0472 140.345 8.07415 138.404 4.61442C128.538 1.61363 118.07 0 107.226 0Z" fill="url(#paint2_radial_116_1876)"/>
<path d="M107.226 0C48.0068 0 0 48.1245 0 107.489C0 141.758 15.9976 172.282 40.9148 191.964C19.114 149 27.8374 109.708 58.6174 79.1836C91.8573 46.2203 136.612 35.4472 140.466 16.1234C141.279 12.0472 140.345 8.07415 138.404 4.61442C128.538 1.61363 118.07 0 107.226 0Z" fill="url(#paint3_radial_116_1876)"/>
<path d="M58.6182 79.1845C91.8581 46.2211 136.613 35.448 140.467 16.1242C141.28 12.048 140.346 8.07496 138.405 4.61523C141.315 5.50042 144.173 6.50631 146.973 7.6271C149.601 11.21 151.692 16.3639 151.188 22.9318C150.638 30.1023 147.076 36.5888 141.866 42.9965C126.772 61.5627 96.1936 79.0158 88.2823 111.431C81.7137 138.345 83.0759 162.799 90.8873 180.383C97.1836 194.556 128.93 217.716 164.77 198.139C144.753 212.344 118.068 215.284 107.227 214.979C82.193 214.979 59.1627 206.379 40.9156 191.965C19.1148 149.001 27.8382 109.708 58.6182 79.1845Z" fill="url(#paint4_linear_116_1876)"/>
<path d="M58.6182 79.1845C91.8581 46.2211 136.613 35.448 140.467 16.1242C141.28 12.048 140.346 8.07496 138.405 4.61523C141.315 5.50042 144.173 6.50631 146.973 7.6271C149.601 11.21 151.692 16.3639 151.188 22.9318C150.638 30.1023 147.076 36.5888 141.866 42.9965C126.772 61.5627 96.1936 79.0158 88.2823 111.431C81.7137 138.345 83.0759 162.799 90.8873 180.383C97.1836 194.556 128.93 217.716 164.77 198.139C144.753 212.344 118.068 215.284 107.227 214.979C82.193 214.979 59.1627 206.379 40.9156 191.965C19.1148 149.001 27.8382 109.708 58.6182 79.1845Z" fill="url(#paint5_radial_116_1876)"/>
<path d="M58.6182 79.1845C91.8581 46.2211 136.613 35.448 140.467 16.1242C141.28 12.048 140.346 8.07496 138.405 4.61523C141.315 5.50042 144.173 6.50631 146.973 7.6271C149.601 11.21 151.692 16.3639 151.188 22.9318C150.638 30.1023 147.076 36.5888 141.866 42.9965C126.772 61.5627 96.1936 79.0158 88.2823 111.431C81.7137 138.345 83.0759 162.799 90.8873 180.383C97.1836 194.556 128.93 217.716 164.77 198.139C144.753 212.344 118.068 215.284 107.227 214.979C82.193 214.979 59.1627 206.379 40.9156 191.965C19.1148 149.001 27.8382 109.708 58.6182 79.1845Z" fill="url(#paint6_radial_116_1876)"/>
<path d="M58.6182 79.1845C91.8581 46.2211 136.613 35.448 140.467 16.1242C141.28 12.048 140.346 8.07496 138.405 4.61523C141.315 5.50042 144.173 6.50631 146.973 7.6271C149.601 11.21 151.692 16.3639 151.188 22.9318C150.638 30.1023 147.076 36.5888 141.866 42.9965C126.772 61.5627 96.1936 79.0158 88.2823 111.431C81.7137 138.345 83.0759 162.799 90.8873 180.383C97.1836 194.556 128.93 217.716 164.77 198.139C144.753 212.344 118.068 215.284 107.227 214.979C82.193 214.979 59.1627 206.379 40.9156 191.965C19.1148 149.001 27.8382 109.708 58.6182 79.1845Z" fill="url(#paint7_linear_116_1876)"/>
<path d="M193.011 94.5909C206.621 129.735 201.946 177.833 164.773 198.139C128.933 217.716 97.1861 194.556 90.8898 180.383C87.214 167.325 89.4461 157.922 95.4347 151.918C96.9835 149.888 103.083 144.752 112.233 149.052C123.671 154.426 129.39 157.89 134.036 154.785C138.683 151.68 137.221 147.959 139.366 143.66C141.332 139.719 142.357 140.389 143.716 138.208C144.8 136.471 143.996 134.922 144.532 133.847C145.068 132.772 145.62 133.03 146.163 130.304C146.607 128.082 143.676 124.998 146.435 121.309C148.067 119.129 153.093 120.344 155.952 116.403C158.325 113.132 149.763 102.832 150.12 94.2326C150.477 85.6334 156.554 79.9007 154.052 65.9271C151.969 54.2952 147.261 48.7294 141.9 42.997C144.844 43.1524 181.259 64.2481 193.011 94.5909Z" fill="url(#paint8_linear_116_1876)"/>
<path d="M193.011 94.5909C206.621 129.735 201.946 177.833 164.773 198.139C128.933 217.716 97.1861 194.556 90.8898 180.383C87.214 167.325 89.4461 157.922 95.4347 151.918C96.9835 149.888 103.083 144.752 112.233 149.052C123.671 154.426 129.39 157.89 134.036 154.785C138.683 151.68 137.221 147.959 139.366 143.66C141.332 139.719 142.357 140.389 143.716 138.208C144.8 136.471 143.996 134.922 144.532 133.847C145.068 132.772 145.62 133.03 146.163 130.304C146.607 128.082 143.676 124.998 146.435 121.309C148.067 119.129 153.093 120.344 155.952 116.403C158.325 113.132 149.763 102.832 150.12 94.2326C150.477 85.6334 156.554 79.9007 154.052 65.9271C151.969 54.2952 147.261 48.7294 141.9 42.997C144.844 43.1524 181.259 64.2481 193.011 94.5909Z" fill="url(#paint9_radial_116_1876)"/>
<defs>
<linearGradient id="paint0_linear_116_1876" x1="70.3801" y1="0" x2="70.3801" y2="191.964" gradientUnits="userSpaceOnUse">
<stop stop-color="#FF7C32"/>
<stop offset="1" stop-color="#FF455B"/>
</linearGradient>
<radialGradient id="paint1_radial_116_1876" cx="0" cy="0" r="1" gradientUnits="userSpaceOnUse" gradientTransform="translate(126.857 75.7903) rotate(153.036) scale(142.465 104.872)">
<stop stop-color="#CE2500" stop-opacity="0"/>
<stop offset="0.448342" stop-color="#CE2500" stop-opacity="0"/>
<stop offset="1" stop-color="#CE2500"/>
</radialGradient>
<radialGradient id="paint2_radial_116_1876" cx="0" cy="0" r="1" gradientUnits="userSpaceOnUse" gradientTransform="translate(148.609 184) rotate(-133.746) scale(186.388 122.286)">
<stop stop-color="#FF7C32"/>
<stop offset="0.745381" stop-color="#FF7C32"/>
<stop offset="1" stop-color="#FF7C32" stop-opacity="0"/>
</radialGradient>
<radialGradient id="paint3_radial_116_1876" cx="0" cy="0" r="1" gradientUnits="userSpaceOnUse" gradientTransform="translate(140.724 19.6414) rotate(164.595) scale(155.965 102.552)">
<stop stop-color="#FF7C32"/>
<stop offset="1" stop-color="#FF7C32" stop-opacity="0"/>
</radialGradient>
<linearGradient id="paint4_linear_116_1876" x1="96.7952" y1="4.61523" x2="96.7952" y2="215" gradientUnits="userSpaceOnUse">
<stop stop-color="#FF7C32"/>
<stop offset="1" stop-color="#FF455B"/>
</linearGradient>
<radialGradient id="paint5_radial_116_1876" cx="0" cy="0" r="1" gradientUnits="userSpaceOnUse" gradientTransform="translate(118.156 148.294) rotate(161.172) scale(84.4581 111.538)">
<stop stop-color="#CE2500" stop-opacity="0"/>
<stop offset="0.549917" stop-color="#CE2500" stop-opacity="0"/>
<stop offset="1" stop-color="#CE2500"/>
</radialGradient>
<radialGradient id="paint6_radial_116_1876" cx="0" cy="0" r="1" gradientUnits="userSpaceOnUse" gradientTransform="translate(118.156 148.294) rotate(-83.9344) scale(126.087 165.795)">
<stop stop-color="#CE2500" stop-opacity="0"/>
<stop offset="0.549917" stop-color="#CE2500" stop-opacity="0"/>
<stop offset="1" stop-color="#CE1900"/>
</radialGradient>
<linearGradient id="paint7_linear_116_1876" x1="-109.154" y1="182.365" x2="148.953" y2="24.5662" gradientUnits="userSpaceOnUse">
<stop stop-color="#FF7C32" stop-opacity="0"/>
<stop offset="0.378261" stop-color="#FF7C32" stop-opacity="0"/>
<stop offset="1" stop-color="#FF7133"/>
</linearGradient>
<linearGradient id="paint8_linear_116_1876" x1="144.552" y1="42.9961" x2="144.552" y2="205.67" gradientUnits="userSpaceOnUse">
<stop stop-color="#FF7C32"/>
<stop offset="1" stop-color="#FF455B"/>
</linearGradient>
<radialGradient id="paint9_radial_116_1876" cx="0" cy="0" r="1" gradientUnits="userSpaceOnUse" gradientTransform="translate(160.574 73.3373) rotate(101.651) scale(149.448 101.901)">
<stop stop-color="#CE2500" stop-opacity="0"/>
<stop offset="0.685603" stop-color="#CE2500" stop-opacity="0"/>
<stop offset="1" stop-color="#CE0000"/>
</radialGradient>
</defs>
</svg>
